<mxfile host="Electron" modified="2023-12-23T13:26:36.881Z" agent="Mozilla/5.0 (Windows NT 10.0; Win64; x64) AppleWebKit/537.36 (KHTML, like Gecko) draw.io/22.1.2 Chrome/114.0.5735.289 Electron/25.9.4 Safari/537.36" etag="7O5hRx__fXeexY5DeOZP" version="22.1.2" type="device">
  <diagram name="Sida-1" id="2m-HuJvP2kBS-OSaevNT">
    <mxGraphModel dx="1571" dy="1156" grid="1" gridSize="10" guides="1" tooltips="1" connect="1" arrows="1" fold="1" page="1" pageScale="1" pageWidth="827" pageHeight="1169" math="0" shadow="0">
      <root>
        <mxCell id="0" />
        <mxCell id="1" parent="0" />
        <mxCell id="SCxQsB2F3jwV4tBP3miz-1" value="" style="rounded=0;whiteSpace=wrap;html=1;fillColor=#F8B572;gradientColor=#F70202;strokeColor=#b85450;" vertex="1" parent="1">
          <mxGeometry x="307" y="307" width="40" height="40" as="geometry" />
        </mxCell>
        <mxCell id="SCxQsB2F3jwV4tBP3miz-2" value="" style="rounded=0;whiteSpace=wrap;html=1;fillColor=#30DAE6;strokeColor=#996185;gradientColor=#24D55F;" vertex="1" parent="1">
          <mxGeometry x="426" y="387" width="40" height="40" as="geometry" />
        </mxCell>
        <mxCell id="SCxQsB2F3jwV4tBP3miz-3" value="" style="rounded=0;whiteSpace=wrap;html=1;fillColor=#30DAE6;strokeColor=#996185;gradientColor=#24D55F;" vertex="1" parent="1">
          <mxGeometry x="506" y="387" width="40" height="40" as="geometry" />
        </mxCell>
        <mxCell id="SCxQsB2F3jwV4tBP3miz-4" value="" style="rounded=0;whiteSpace=wrap;html=1;fillColor=#30DAE6;strokeColor=#996185;gradientColor=#24D55F;" vertex="1" parent="1">
          <mxGeometry x="826" y="387" width="40" height="40" as="geometry" />
        </mxCell>
        <mxCell id="SCxQsB2F3jwV4tBP3miz-5" value="" style="rounded=0;whiteSpace=wrap;html=1;fillColor=#dae8fc;gradientColor=#7ea6e0;strokeColor=#6c8ebf;" vertex="1" parent="1">
          <mxGeometry x="600" y="155" width="40" height="40" as="geometry" />
        </mxCell>
        <mxCell id="SCxQsB2F3jwV4tBP3miz-6" value="" style="rounded=0;whiteSpace=wrap;html=1;fillColor=#dae8fc;gradientColor=#7ea6e0;strokeColor=#6c8ebf;" vertex="1" parent="1">
          <mxGeometry x="680" y="156" width="40" height="40" as="geometry" />
        </mxCell>
        <mxCell id="SCxQsB2F3jwV4tBP3miz-7" value="" style="rounded=0;whiteSpace=wrap;html=1;fillColor=#ffcd28;gradientColor=#ffa500;strokeColor=#d79b00;" vertex="1" parent="1">
          <mxGeometry x="640" y="116" width="40" height="40" as="geometry" />
        </mxCell>
        <mxCell id="SCxQsB2F3jwV4tBP3miz-8" value="" style="rounded=0;whiteSpace=wrap;html=1;fillColor=#ffcd28;gradientColor=#ffa500;strokeColor=#d79b00;" vertex="1" parent="1">
          <mxGeometry x="560" y="115" width="40" height="40" as="geometry" />
        </mxCell>
        <mxCell id="SCxQsB2F3jwV4tBP3miz-9" value="" style="rounded=0;whiteSpace=wrap;html=1;fillColor=#dae8fc;gradientColor=#7ea6e0;strokeColor=#6c8ebf;" vertex="1" parent="1">
          <mxGeometry x="280" y="156" width="40" height="40" as="geometry" />
        </mxCell>
        <mxCell id="SCxQsB2F3jwV4tBP3miz-10" value="" style="rounded=0;whiteSpace=wrap;html=1;fillColor=#dae8fc;gradientColor=#7ea6e0;strokeColor=#6c8ebf;" vertex="1" parent="1">
          <mxGeometry x="200" y="156" width="40" height="40" as="geometry" />
        </mxCell>
        <mxCell id="SCxQsB2F3jwV4tBP3miz-11" value="" style="rounded=0;whiteSpace=wrap;html=1;fillColor=#ffcd28;gradientColor=#ffa500;strokeColor=#d79b00;" vertex="1" parent="1">
          <mxGeometry x="400" y="115" width="40" height="40" as="geometry" />
        </mxCell>
        <mxCell id="SCxQsB2F3jwV4tBP3miz-12" value="" style="rounded=0;whiteSpace=wrap;html=1;fillColor=#ffcd28;gradientColor=#ffa500;strokeColor=#d79b00;" vertex="1" parent="1">
          <mxGeometry x="320" y="115" width="40" height="40" as="geometry" />
        </mxCell>
        <mxCell id="SCxQsB2F3jwV4tBP3miz-13" value="" style="rounded=0;whiteSpace=wrap;html=1;fillColor=#ffcd28;gradientColor=#ffa500;strokeColor=#d79b00;" vertex="1" parent="1">
          <mxGeometry x="121" y="116" width="40" height="40" as="geometry" />
        </mxCell>
        <mxCell id="SCxQsB2F3jwV4tBP3miz-14" value="" style="rounded=0;whiteSpace=wrap;html=1;fillColor=#d5e8d4;gradientColor=#97d077;strokeColor=#82b366;" vertex="1" parent="1">
          <mxGeometry x="81" y="75" width="40" height="40" as="geometry" />
        </mxCell>
        <mxCell id="SCxQsB2F3jwV4tBP3miz-15" value="" style="endArrow=none;html=1;rounded=0;" edge="1" parent="1">
          <mxGeometry width="50" height="50" relative="1" as="geometry">
            <mxPoint x="80" y="245" as="sourcePoint" />
            <mxPoint x="780" y="245" as="targetPoint" />
          </mxGeometry>
        </mxCell>
        <mxCell id="SCxQsB2F3jwV4tBP3miz-16" value="" style="endArrow=none;html=1;rounded=0;exitX=0.5;exitY=0;exitDx=0;exitDy=0;" edge="1" parent="1" source="SCxQsB2F3jwV4tBP3miz-38">
          <mxGeometry width="50" height="50" relative="1" as="geometry">
            <mxPoint x="80" y="315" as="sourcePoint" />
            <mxPoint x="80" y="75" as="targetPoint" />
          </mxGeometry>
        </mxCell>
        <mxCell id="SCxQsB2F3jwV4tBP3miz-17" value="" style="endArrow=classic;html=1;rounded=0;fillColor=#e51400;strokeColor=#B20000;" edge="1" parent="1">
          <mxGeometry width="50" height="50" relative="1" as="geometry">
            <mxPoint x="80" y="155" as="sourcePoint" />
            <mxPoint x="80" y="125" as="targetPoint" />
          </mxGeometry>
        </mxCell>
        <mxCell id="SCxQsB2F3jwV4tBP3miz-18" value="" style="endArrow=classic;html=1;rounded=0;fillColor=#e51400;strokeColor=#B20000;" edge="1" parent="1">
          <mxGeometry width="50" height="50" relative="1" as="geometry">
            <mxPoint x="80" y="115" as="sourcePoint" />
            <mxPoint x="80" y="85" as="targetPoint" />
          </mxGeometry>
        </mxCell>
        <mxCell id="SCxQsB2F3jwV4tBP3miz-19" value="Task 1" style="text;html=1;strokeColor=none;fillColor=none;align=center;verticalAlign=middle;whiteSpace=wrap;rounded=0;" vertex="1" parent="1">
          <mxGeometry x="20" y="85" width="60" height="30" as="geometry" />
        </mxCell>
        <mxCell id="SCxQsB2F3jwV4tBP3miz-20" value="Task IA" style="text;html=1;strokeColor=none;fillColor=none;align=center;verticalAlign=middle;whiteSpace=wrap;rounded=0;" vertex="1" parent="1">
          <mxGeometry x="20" y="121" width="60" height="30" as="geometry" />
        </mxCell>
        <mxCell id="SCxQsB2F3jwV4tBP3miz-21" value="" style="endArrow=none;html=1;rounded=0;" edge="1" parent="1">
          <mxGeometry width="50" height="50" relative="1" as="geometry">
            <mxPoint x="280" y="265" as="sourcePoint" />
            <mxPoint x="280" y="245" as="targetPoint" />
          </mxGeometry>
        </mxCell>
        <mxCell id="SCxQsB2F3jwV4tBP3miz-22" value="" style="endArrow=none;html=1;rounded=0;" edge="1" parent="1">
          <mxGeometry width="50" height="50" relative="1" as="geometry">
            <mxPoint x="480" y="265" as="sourcePoint" />
            <mxPoint x="480" y="245" as="targetPoint" />
          </mxGeometry>
        </mxCell>
        <mxCell id="SCxQsB2F3jwV4tBP3miz-23" value="" style="endArrow=none;html=1;rounded=0;" edge="1" parent="1">
          <mxGeometry width="50" height="50" relative="1" as="geometry">
            <mxPoint x="680" y="265" as="sourcePoint" />
            <mxPoint x="680" y="245" as="targetPoint" />
          </mxGeometry>
        </mxCell>
        <mxCell id="SCxQsB2F3jwV4tBP3miz-24" value="" style="endArrow=none;html=1;rounded=0;" edge="1" parent="1">
          <mxGeometry width="50" height="50" relative="1" as="geometry">
            <mxPoint x="120" y="255" as="sourcePoint" />
            <mxPoint x="119.67000000000002" y="245" as="targetPoint" />
          </mxGeometry>
        </mxCell>
        <mxCell id="SCxQsB2F3jwV4tBP3miz-25" value="" style="endArrow=none;html=1;rounded=0;" edge="1" parent="1">
          <mxGeometry width="50" height="50" relative="1" as="geometry">
            <mxPoint x="160" y="255" as="sourcePoint" />
            <mxPoint x="160" y="245" as="targetPoint" />
          </mxGeometry>
        </mxCell>
        <mxCell id="SCxQsB2F3jwV4tBP3miz-26" value="" style="endArrow=none;html=1;rounded=0;" edge="1" parent="1">
          <mxGeometry width="50" height="50" relative="1" as="geometry">
            <mxPoint x="200" y="255" as="sourcePoint" />
            <mxPoint x="200" y="245" as="targetPoint" />
          </mxGeometry>
        </mxCell>
        <mxCell id="SCxQsB2F3jwV4tBP3miz-27" value="" style="endArrow=none;html=1;rounded=0;" edge="1" parent="1">
          <mxGeometry width="50" height="50" relative="1" as="geometry">
            <mxPoint x="240" y="255" as="sourcePoint" />
            <mxPoint x="240" y="245" as="targetPoint" />
          </mxGeometry>
        </mxCell>
        <mxCell id="SCxQsB2F3jwV4tBP3miz-28" value="" style="endArrow=none;html=1;rounded=0;" edge="1" parent="1">
          <mxGeometry width="50" height="50" relative="1" as="geometry">
            <mxPoint x="320" y="255" as="sourcePoint" />
            <mxPoint x="320" y="245" as="targetPoint" />
          </mxGeometry>
        </mxCell>
        <mxCell id="SCxQsB2F3jwV4tBP3miz-29" value="" style="endArrow=none;html=1;rounded=0;" edge="1" parent="1">
          <mxGeometry width="50" height="50" relative="1" as="geometry">
            <mxPoint x="360" y="255" as="sourcePoint" />
            <mxPoint x="360" y="245" as="targetPoint" />
          </mxGeometry>
        </mxCell>
        <mxCell id="SCxQsB2F3jwV4tBP3miz-30" value="" style="endArrow=none;html=1;rounded=0;" edge="1" parent="1">
          <mxGeometry width="50" height="50" relative="1" as="geometry">
            <mxPoint x="400" y="255" as="sourcePoint" />
            <mxPoint x="400" y="245" as="targetPoint" />
          </mxGeometry>
        </mxCell>
        <mxCell id="SCxQsB2F3jwV4tBP3miz-31" value="" style="endArrow=none;html=1;rounded=0;" edge="1" parent="1">
          <mxGeometry width="50" height="50" relative="1" as="geometry">
            <mxPoint x="440" y="255" as="sourcePoint" />
            <mxPoint x="440" y="245" as="targetPoint" />
          </mxGeometry>
        </mxCell>
        <mxCell id="SCxQsB2F3jwV4tBP3miz-32" value="" style="endArrow=none;html=1;rounded=0;" edge="1" parent="1">
          <mxGeometry width="50" height="50" relative="1" as="geometry">
            <mxPoint x="520" y="255" as="sourcePoint" />
            <mxPoint x="520" y="245" as="targetPoint" />
          </mxGeometry>
        </mxCell>
        <mxCell id="SCxQsB2F3jwV4tBP3miz-33" value="" style="endArrow=none;html=1;rounded=0;" edge="1" parent="1">
          <mxGeometry width="50" height="50" relative="1" as="geometry">
            <mxPoint x="560" y="255" as="sourcePoint" />
            <mxPoint x="560" y="245" as="targetPoint" />
          </mxGeometry>
        </mxCell>
        <mxCell id="SCxQsB2F3jwV4tBP3miz-34" value="" style="endArrow=none;html=1;rounded=0;" edge="1" parent="1">
          <mxGeometry width="50" height="50" relative="1" as="geometry">
            <mxPoint x="600" y="255" as="sourcePoint" />
            <mxPoint x="600" y="245" as="targetPoint" />
          </mxGeometry>
        </mxCell>
        <mxCell id="SCxQsB2F3jwV4tBP3miz-35" value="" style="endArrow=none;html=1;rounded=0;" edge="1" parent="1">
          <mxGeometry width="50" height="50" relative="1" as="geometry">
            <mxPoint x="640" y="255" as="sourcePoint" />
            <mxPoint x="640" y="245" as="targetPoint" />
          </mxGeometry>
        </mxCell>
        <mxCell id="SCxQsB2F3jwV4tBP3miz-36" value="" style="endArrow=none;html=1;rounded=0;" edge="1" parent="1">
          <mxGeometry width="50" height="50" relative="1" as="geometry">
            <mxPoint x="720" y="255" as="sourcePoint" />
            <mxPoint x="720" y="245" as="targetPoint" />
          </mxGeometry>
        </mxCell>
        <mxCell id="SCxQsB2F3jwV4tBP3miz-37" value="" style="endArrow=none;html=1;rounded=0;" edge="1" parent="1">
          <mxGeometry width="50" height="50" relative="1" as="geometry">
            <mxPoint x="760" y="255" as="sourcePoint" />
            <mxPoint x="760" y="245" as="targetPoint" />
          </mxGeometry>
        </mxCell>
        <mxCell id="SCxQsB2F3jwV4tBP3miz-38" value="&lt;font style=&quot;font-size: 8px;&quot;&gt;t = 0&lt;/font&gt;" style="text;html=1;strokeColor=none;fillColor=none;align=center;verticalAlign=middle;whiteSpace=wrap;rounded=0;" vertex="1" parent="1">
          <mxGeometry x="60" y="265" width="40" height="20" as="geometry" />
        </mxCell>
        <mxCell id="SCxQsB2F3jwV4tBP3miz-39" value="&lt;font style=&quot;font-size: 8px;&quot;&gt;1&lt;/font&gt;" style="text;html=1;strokeColor=none;fillColor=none;align=center;verticalAlign=middle;whiteSpace=wrap;rounded=0;" vertex="1" parent="1">
          <mxGeometry x="110" y="265" width="20" height="20" as="geometry" />
        </mxCell>
        <mxCell id="SCxQsB2F3jwV4tBP3miz-40" value="&lt;font style=&quot;font-size: 8px;&quot;&gt;2&lt;/font&gt;" style="text;html=1;strokeColor=none;fillColor=none;align=center;verticalAlign=middle;whiteSpace=wrap;rounded=0;" vertex="1" parent="1">
          <mxGeometry x="150" y="265" width="20" height="20" as="geometry" />
        </mxCell>
        <mxCell id="SCxQsB2F3jwV4tBP3miz-41" value="&lt;font style=&quot;font-size: 8px;&quot;&gt;3&lt;/font&gt;" style="text;html=1;strokeColor=none;fillColor=none;align=center;verticalAlign=middle;whiteSpace=wrap;rounded=0;" vertex="1" parent="1">
          <mxGeometry x="190" y="265" width="20" height="20" as="geometry" />
        </mxCell>
        <mxCell id="SCxQsB2F3jwV4tBP3miz-42" value="&lt;font style=&quot;font-size: 8px;&quot;&gt;4&lt;/font&gt;" style="text;html=1;strokeColor=none;fillColor=none;align=center;verticalAlign=middle;whiteSpace=wrap;rounded=0;" vertex="1" parent="1">
          <mxGeometry x="230" y="265" width="20" height="20" as="geometry" />
        </mxCell>
        <mxCell id="SCxQsB2F3jwV4tBP3miz-43" value="&lt;font style=&quot;font-size: 8px;&quot;&gt;5&lt;/font&gt;" style="text;html=1;strokeColor=none;fillColor=none;align=center;verticalAlign=middle;whiteSpace=wrap;rounded=0;" vertex="1" parent="1">
          <mxGeometry x="270" y="265" width="20" height="20" as="geometry" />
        </mxCell>
        <mxCell id="SCxQsB2F3jwV4tBP3miz-44" value="&lt;span style=&quot;font-size: 8px;&quot;&gt;6&lt;/span&gt;" style="text;html=1;strokeColor=none;fillColor=none;align=center;verticalAlign=middle;whiteSpace=wrap;rounded=0;" vertex="1" parent="1">
          <mxGeometry x="310" y="265" width="20" height="20" as="geometry" />
        </mxCell>
        <mxCell id="SCxQsB2F3jwV4tBP3miz-45" value="&lt;span style=&quot;font-size: 8px;&quot;&gt;7&lt;/span&gt;" style="text;html=1;strokeColor=none;fillColor=none;align=center;verticalAlign=middle;whiteSpace=wrap;rounded=0;" vertex="1" parent="1">
          <mxGeometry x="350" y="265" width="20" height="20" as="geometry" />
        </mxCell>
        <mxCell id="SCxQsB2F3jwV4tBP3miz-46" value="&lt;font style=&quot;font-size: 8px;&quot;&gt;8&lt;/font&gt;" style="text;html=1;strokeColor=none;fillColor=none;align=center;verticalAlign=middle;whiteSpace=wrap;rounded=0;" vertex="1" parent="1">
          <mxGeometry x="390" y="265" width="20" height="20" as="geometry" />
        </mxCell>
        <mxCell id="SCxQsB2F3jwV4tBP3miz-47" value="&lt;font style=&quot;font-size: 8px;&quot;&gt;9&lt;/font&gt;" style="text;html=1;strokeColor=none;fillColor=none;align=center;verticalAlign=middle;whiteSpace=wrap;rounded=0;" vertex="1" parent="1">
          <mxGeometry x="430" y="265" width="20" height="20" as="geometry" />
        </mxCell>
        <mxCell id="SCxQsB2F3jwV4tBP3miz-48" value="&lt;font style=&quot;font-size: 8px;&quot;&gt;10&lt;/font&gt;" style="text;html=1;strokeColor=none;fillColor=none;align=center;verticalAlign=middle;whiteSpace=wrap;rounded=0;" vertex="1" parent="1">
          <mxGeometry x="470" y="265" width="20" height="20" as="geometry" />
        </mxCell>
        <mxCell id="SCxQsB2F3jwV4tBP3miz-49" value="&lt;font style=&quot;font-size: 8px;&quot;&gt;11&lt;/font&gt;" style="text;html=1;strokeColor=none;fillColor=none;align=center;verticalAlign=middle;whiteSpace=wrap;rounded=0;" vertex="1" parent="1">
          <mxGeometry x="510" y="265" width="20" height="20" as="geometry" />
        </mxCell>
        <mxCell id="SCxQsB2F3jwV4tBP3miz-50" value="&lt;font style=&quot;font-size: 8px;&quot;&gt;12&lt;/font&gt;" style="text;html=1;strokeColor=none;fillColor=none;align=center;verticalAlign=middle;whiteSpace=wrap;rounded=0;" vertex="1" parent="1">
          <mxGeometry x="550" y="265" width="20" height="20" as="geometry" />
        </mxCell>
        <mxCell id="SCxQsB2F3jwV4tBP3miz-51" value="&lt;font style=&quot;font-size: 8px;&quot;&gt;13&lt;/font&gt;" style="text;html=1;strokeColor=none;fillColor=none;align=center;verticalAlign=middle;whiteSpace=wrap;rounded=0;" vertex="1" parent="1">
          <mxGeometry x="590" y="265" width="20" height="20" as="geometry" />
        </mxCell>
        <mxCell id="SCxQsB2F3jwV4tBP3miz-52" value="&lt;font style=&quot;font-size: 8px;&quot;&gt;14&lt;/font&gt;" style="text;html=1;strokeColor=none;fillColor=none;align=center;verticalAlign=middle;whiteSpace=wrap;rounded=0;" vertex="1" parent="1">
          <mxGeometry x="630" y="265" width="20" height="20" as="geometry" />
        </mxCell>
        <mxCell id="SCxQsB2F3jwV4tBP3miz-53" value="&lt;font style=&quot;font-size: 8px;&quot;&gt;15&lt;/font&gt;" style="text;html=1;strokeColor=none;fillColor=none;align=center;verticalAlign=middle;whiteSpace=wrap;rounded=0;" vertex="1" parent="1">
          <mxGeometry x="670" y="265" width="20" height="20" as="geometry" />
        </mxCell>
        <mxCell id="SCxQsB2F3jwV4tBP3miz-54" value="&lt;font style=&quot;font-size: 8px;&quot;&gt;16&lt;/font&gt;" style="text;html=1;strokeColor=none;fillColor=none;align=center;verticalAlign=middle;whiteSpace=wrap;rounded=0;" vertex="1" parent="1">
          <mxGeometry x="710" y="265" width="20" height="20" as="geometry" />
        </mxCell>
        <mxCell id="SCxQsB2F3jwV4tBP3miz-55" value="&lt;font style=&quot;font-size: 8px;&quot;&gt;17&lt;/font&gt;" style="text;html=1;strokeColor=none;fillColor=none;align=center;verticalAlign=middle;whiteSpace=wrap;rounded=0;" vertex="1" parent="1">
          <mxGeometry x="750" y="265" width="20" height="20" as="geometry" />
        </mxCell>
        <mxCell id="SCxQsB2F3jwV4tBP3miz-56" value="" style="rounded=0;whiteSpace=wrap;html=1;fillColor=#647687;strokeColor=#314354;fontColor=#ffffff;" vertex="1" parent="1">
          <mxGeometry x="240" y="196" width="65" height="40" as="geometry" />
        </mxCell>
        <mxCell id="SCxQsB2F3jwV4tBP3miz-57" value="Msg1" style="text;html=1;strokeColor=none;fillColor=none;align=center;verticalAlign=middle;whiteSpace=wrap;rounded=0;" vertex="1" parent="1">
          <mxGeometry x="21" y="196" width="60" height="30" as="geometry" />
        </mxCell>
        <mxCell id="SCxQsB2F3jwV4tBP3miz-58" value="" style="endArrow=classic;html=1;rounded=0;exitX=0;exitY=0.5;exitDx=0;exitDy=0;" edge="1" parent="1" source="SCxQsB2F3jwV4tBP3miz-59">
          <mxGeometry width="50" height="50" relative="1" as="geometry">
            <mxPoint x="182" y="53" as="sourcePoint" />
            <mxPoint x="105" y="65" as="targetPoint" />
          </mxGeometry>
        </mxCell>
        <mxCell id="SCxQsB2F3jwV4tBP3miz-59" value="Msg1 arrives here" style="text;html=1;strokeColor=default;fillColor=none;align=center;verticalAlign=middle;whiteSpace=wrap;rounded=0;" vertex="1" parent="1">
          <mxGeometry x="142" y="20" width="68" height="37" as="geometry" />
        </mxCell>
        <mxCell id="SCxQsB2F3jwV4tBP3miz-60" value="" style="rounded=0;whiteSpace=wrap;html=1;fillColor=#ffcd28;gradientColor=#ffa500;strokeColor=#d79b00;" vertex="1" parent="1">
          <mxGeometry x="161" y="116" width="40" height="40" as="geometry" />
        </mxCell>
        <mxCell id="SCxQsB2F3jwV4tBP3miz-61" value="" style="endArrow=classic;html=1;rounded=0;fillColor=#e51400;strokeColor=#B20000;strokeWidth=1;" edge="1" parent="1">
          <mxGeometry width="50" height="50" relative="1" as="geometry">
            <mxPoint x="159.66" y="155" as="sourcePoint" />
            <mxPoint x="159.9" y="125" as="targetPoint" />
          </mxGeometry>
        </mxCell>
        <mxCell id="SCxQsB2F3jwV4tBP3miz-62" value="" style="rounded=0;whiteSpace=wrap;html=1;fillColor=#ffcd28;gradientColor=#ffa500;strokeColor=#d79b00;" vertex="1" parent="1">
          <mxGeometry x="240" y="115" width="40" height="40" as="geometry" />
        </mxCell>
        <mxCell id="SCxQsB2F3jwV4tBP3miz-63" value="" style="rounded=0;whiteSpace=wrap;html=1;fillColor=#ffcd28;gradientColor=#ffa500;strokeColor=#d79b00;" vertex="1" parent="1">
          <mxGeometry x="520" y="115" width="40" height="40" as="geometry" />
        </mxCell>
        <mxCell id="SCxQsB2F3jwV4tBP3miz-64" value="" style="rounded=0;whiteSpace=wrap;html=1;fillColor=#d5e8d4;gradientColor=#97d077;strokeColor=#82b366;" vertex="1" parent="1">
          <mxGeometry x="480" y="75" width="40" height="40" as="geometry" />
        </mxCell>
        <mxCell id="SCxQsB2F3jwV4tBP3miz-65" value="" style="endArrow=classic;html=1;rounded=0;fillColor=#e51400;strokeColor=#B20000;strokeWidth=1;" edge="1" parent="1">
          <mxGeometry width="50" height="50" relative="1" as="geometry">
            <mxPoint x="480" y="116" as="sourcePoint" />
            <mxPoint x="480" y="86" as="targetPoint" />
          </mxGeometry>
        </mxCell>
        <mxCell id="SCxQsB2F3jwV4tBP3miz-66" value="" style="endArrow=classic;html=1;rounded=0;fillColor=#e51400;strokeColor=#B20000;strokeWidth=1;" edge="1" parent="1">
          <mxGeometry width="50" height="50" relative="1" as="geometry">
            <mxPoint x="479.30999999999995" y="155" as="sourcePoint" />
            <mxPoint x="479.30999999999995" y="125" as="targetPoint" />
          </mxGeometry>
        </mxCell>
        <mxCell id="SCxQsB2F3jwV4tBP3miz-67" value="" style="endArrow=classic;html=1;rounded=0;fillColor=#e51400;strokeColor=#B20000;strokeWidth=1;" edge="1" parent="1">
          <mxGeometry width="50" height="50" relative="1" as="geometry">
            <mxPoint x="639.66" y="155" as="sourcePoint" />
            <mxPoint x="639.66" y="125" as="targetPoint" />
          </mxGeometry>
        </mxCell>
        <mxCell id="SCxQsB2F3jwV4tBP3miz-68" value="" style="endArrow=none;html=1;rounded=0;" edge="1" parent="1">
          <mxGeometry width="50" height="50" relative="1" as="geometry">
            <mxPoint x="866" y="531" as="sourcePoint" />
            <mxPoint x="866" y="499" as="targetPoint" />
            <Array as="points" />
          </mxGeometry>
        </mxCell>
        <mxCell id="SCxQsB2F3jwV4tBP3miz-69" value="" style="endArrow=none;html=1;rounded=0;" edge="1" parent="1">
          <mxGeometry width="50" height="50" relative="1" as="geometry">
            <mxPoint x="81" y="530" as="sourcePoint" />
            <mxPoint x="81" y="500" as="targetPoint" />
          </mxGeometry>
        </mxCell>
        <mxCell id="SCxQsB2F3jwV4tBP3miz-70" value="" style="rounded=0;whiteSpace=wrap;html=1;fillColor=#647687;strokeColor=#314354;fontColor=#ffffff;" vertex="1" parent="1">
          <mxGeometry x="640" y="196" width="65" height="40" as="geometry" />
        </mxCell>
        <mxCell id="SCxQsB2F3jwV4tBP3miz-71" value="" style="endArrow=classic;html=1;rounded=0;exitX=0;exitY=0.5;exitDx=0;exitDy=0;" edge="1" parent="1" source="SCxQsB2F3jwV4tBP3miz-72">
          <mxGeometry width="50" height="50" relative="1" as="geometry">
            <mxPoint x="401" y="515" as="sourcePoint" />
            <mxPoint x="81" y="515" as="targetPoint" />
          </mxGeometry>
        </mxCell>
        <mxCell id="SCxQsB2F3jwV4tBP3miz-72" value="&lt;font style=&quot;font-size: 18px;&quot;&gt;Age Delay&lt;/font&gt;" style="text;html=1;strokeColor=#FF0000;fillColor=none;align=center;verticalAlign=middle;whiteSpace=wrap;rounded=1;" vertex="1" parent="1">
          <mxGeometry x="381.5" y="495" width="164.5" height="40" as="geometry" />
        </mxCell>
        <mxCell id="SCxQsB2F3jwV4tBP3miz-73" value="" style="endArrow=classic;html=1;rounded=0;exitX=1;exitY=0.5;exitDx=0;exitDy=0;" edge="1" parent="1" source="SCxQsB2F3jwV4tBP3miz-72">
          <mxGeometry width="50" height="50" relative="1" as="geometry">
            <mxPoint x="419.5" y="515" as="sourcePoint" />
            <mxPoint x="860" y="515" as="targetPoint" />
          </mxGeometry>
        </mxCell>
        <mxCell id="SCxQsB2F3jwV4tBP3miz-74" value="" style="endArrow=classic;html=1;rounded=0;fillColor=#e51400;strokeColor=#B20000;strokeWidth=1;" edge="1" parent="1">
          <mxGeometry width="50" height="50" relative="1" as="geometry">
            <mxPoint x="239.99999999999994" y="156" as="sourcePoint" />
            <mxPoint x="239.99999999999994" y="126" as="targetPoint" />
          </mxGeometry>
        </mxCell>
        <mxCell id="SCxQsB2F3jwV4tBP3miz-75" value="" style="endArrow=classic;html=1;rounded=0;fillColor=#e51400;strokeColor=#B20000;strokeWidth=1;" edge="1" parent="1">
          <mxGeometry width="50" height="50" relative="1" as="geometry">
            <mxPoint x="319.65999999999997" y="155" as="sourcePoint" />
            <mxPoint x="319.65999999999997" y="125" as="targetPoint" />
          </mxGeometry>
        </mxCell>
        <mxCell id="SCxQsB2F3jwV4tBP3miz-76" value="" style="endArrow=classic;html=1;rounded=0;fillColor=#e51400;strokeColor=#B20000;strokeWidth=1;" edge="1" parent="1">
          <mxGeometry width="50" height="50" relative="1" as="geometry">
            <mxPoint x="399.65999999999997" y="156" as="sourcePoint" />
            <mxPoint x="399.65999999999997" y="126" as="targetPoint" />
          </mxGeometry>
        </mxCell>
        <mxCell id="SCxQsB2F3jwV4tBP3miz-77" value="" style="endArrow=classic;html=1;rounded=0;fillColor=#e51400;strokeColor=#B20000;strokeWidth=1;" edge="1" parent="1">
          <mxGeometry width="50" height="50" relative="1" as="geometry">
            <mxPoint x="559.66" y="155" as="sourcePoint" />
            <mxPoint x="559.66" y="125" as="targetPoint" />
          </mxGeometry>
        </mxCell>
        <mxCell id="SCxQsB2F3jwV4tBP3miz-78" value="" style="endArrow=classic;html=1;rounded=0;fillColor=#e51400;strokeColor=#B20000;strokeWidth=1;" edge="1" parent="1">
          <mxGeometry width="50" height="50" relative="1" as="geometry">
            <mxPoint x="719.31" y="156" as="sourcePoint" />
            <mxPoint x="719.31" y="126" as="targetPoint" />
          </mxGeometry>
        </mxCell>
        <mxCell id="SCxQsB2F3jwV4tBP3miz-79" value="Task 2" style="text;html=1;strokeColor=none;fillColor=none;align=center;verticalAlign=middle;whiteSpace=wrap;rounded=0;" vertex="1" parent="1">
          <mxGeometry x="20" y="156" width="60" height="30" as="geometry" />
        </mxCell>
        <mxCell id="SCxQsB2F3jwV4tBP3miz-80" value="" style="endArrow=classic;html=1;rounded=0;fillColor=#e51400;strokeColor=#B20000;strokeWidth=1;" edge="1" parent="1">
          <mxGeometry width="50" height="50" relative="1" as="geometry">
            <mxPoint x="79.70999999999995" y="191" as="sourcePoint" />
            <mxPoint x="79.70999999999995" y="161" as="targetPoint" />
          </mxGeometry>
        </mxCell>
        <mxCell id="SCxQsB2F3jwV4tBP3miz-81" value="" style="endArrow=classic;html=1;rounded=0;fillColor=#e51400;strokeColor=#B20000;strokeWidth=1;" edge="1" parent="1">
          <mxGeometry width="50" height="50" relative="1" as="geometry">
            <mxPoint x="279.99999999999994" y="196" as="sourcePoint" />
            <mxPoint x="279.99999999999994" y="166" as="targetPoint" />
          </mxGeometry>
        </mxCell>
        <mxCell id="SCxQsB2F3jwV4tBP3miz-82" value="" style="endArrow=classic;html=1;rounded=0;fillColor=#e51400;strokeColor=#B20000;strokeWidth=1;" edge="1" parent="1">
          <mxGeometry width="50" height="50" relative="1" as="geometry">
            <mxPoint x="479.42999999999995" y="197" as="sourcePoint" />
            <mxPoint x="479.42999999999995" y="167" as="targetPoint" />
          </mxGeometry>
        </mxCell>
        <mxCell id="SCxQsB2F3jwV4tBP3miz-83" value="" style="endArrow=classic;html=1;rounded=0;fillColor=#e51400;strokeColor=#B20000;strokeWidth=1;" edge="1" parent="1">
          <mxGeometry width="50" height="50" relative="1" as="geometry">
            <mxPoint x="679.7099999999999" y="196" as="sourcePoint" />
            <mxPoint x="679.7099999999999" y="166" as="targetPoint" />
          </mxGeometry>
        </mxCell>
        <mxCell id="SCxQsB2F3jwV4tBP3miz-84" value="" style="rounded=0;whiteSpace=wrap;html=1;fillColor=#30DAE6;strokeColor=#996185;gradientColor=#24D55F;" vertex="1" parent="1">
          <mxGeometry x="906" y="387" width="40" height="40" as="geometry" />
        </mxCell>
        <mxCell id="SCxQsB2F3jwV4tBP3miz-85" value="" style="rounded=0;whiteSpace=wrap;html=1;fillColor=#e6d0de;gradientColor=#d5739d;strokeColor=#996185;" vertex="1" parent="1">
          <mxGeometry x="866" y="347" width="40" height="40" as="geometry" />
        </mxCell>
        <mxCell id="SCxQsB2F3jwV4tBP3miz-86" value="" style="rounded=0;whiteSpace=wrap;html=1;fillColor=#e6d0de;gradientColor=#d5739d;strokeColor=#996185;" vertex="1" parent="1">
          <mxGeometry x="786" y="346" width="40" height="40" as="geometry" />
        </mxCell>
        <mxCell id="SCxQsB2F3jwV4tBP3miz-87" value="" style="rounded=0;whiteSpace=wrap;html=1;fillColor=#e6d0de;gradientColor=#d5739d;strokeColor=#996185;" vertex="1" parent="1">
          <mxGeometry x="626" y="346" width="40" height="40" as="geometry" />
        </mxCell>
        <mxCell id="SCxQsB2F3jwV4tBP3miz-88" value="" style="rounded=0;whiteSpace=wrap;html=1;fillColor=#e6d0de;gradientColor=#d5739d;strokeColor=#996185;" vertex="1" parent="1">
          <mxGeometry x="546" y="346" width="40" height="40" as="geometry" />
        </mxCell>
        <mxCell id="SCxQsB2F3jwV4tBP3miz-89" value="" style="rounded=0;whiteSpace=wrap;html=1;fillColor=#e6d0de;gradientColor=#d5739d;strokeColor=#996185;" vertex="1" parent="1">
          <mxGeometry x="347" y="347" width="40" height="40" as="geometry" />
        </mxCell>
        <mxCell id="SCxQsB2F3jwV4tBP3miz-90" value="" style="endArrow=none;html=1;rounded=0;" edge="1" parent="1">
          <mxGeometry width="50" height="50" relative="1" as="geometry">
            <mxPoint x="306" y="435" as="sourcePoint" />
            <mxPoint x="1006" y="435" as="targetPoint" />
          </mxGeometry>
        </mxCell>
        <mxCell id="SCxQsB2F3jwV4tBP3miz-91" value="" style="endArrow=none;html=1;rounded=0;exitX=0.5;exitY=0;exitDx=0;exitDy=0;" edge="1" parent="1" source="SCxQsB2F3jwV4tBP3miz-113">
          <mxGeometry width="50" height="50" relative="1" as="geometry">
            <mxPoint x="306" y="546" as="sourcePoint" />
            <mxPoint x="306" y="306" as="targetPoint" />
          </mxGeometry>
        </mxCell>
        <mxCell id="SCxQsB2F3jwV4tBP3miz-92" value="" style="endArrow=classic;html=1;rounded=0;fillColor=#e51400;strokeColor=#B20000;" edge="1" parent="1">
          <mxGeometry width="50" height="50" relative="1" as="geometry">
            <mxPoint x="306" y="386" as="sourcePoint" />
            <mxPoint x="306" y="356" as="targetPoint" />
          </mxGeometry>
        </mxCell>
        <mxCell id="SCxQsB2F3jwV4tBP3miz-93" value="" style="endArrow=classic;html=1;rounded=0;fillColor=#e51400;strokeColor=#B20000;" edge="1" parent="1">
          <mxGeometry width="50" height="50" relative="1" as="geometry">
            <mxPoint x="306" y="346" as="sourcePoint" />
            <mxPoint x="306" y="316" as="targetPoint" />
          </mxGeometry>
        </mxCell>
        <mxCell id="SCxQsB2F3jwV4tBP3miz-94" value="Task 3" style="text;html=1;strokeColor=none;fillColor=none;align=center;verticalAlign=middle;whiteSpace=wrap;rounded=0;" vertex="1" parent="1">
          <mxGeometry x="246" y="316" width="60" height="30" as="geometry" />
        </mxCell>
        <mxCell id="SCxQsB2F3jwV4tBP3miz-95" value="Task IB" style="text;html=1;strokeColor=none;fillColor=none;align=center;verticalAlign=middle;whiteSpace=wrap;rounded=0;" vertex="1" parent="1">
          <mxGeometry x="246" y="352" width="60" height="30" as="geometry" />
        </mxCell>
        <mxCell id="SCxQsB2F3jwV4tBP3miz-96" value="" style="endArrow=none;html=1;rounded=0;" edge="1" parent="1">
          <mxGeometry width="50" height="50" relative="1" as="geometry">
            <mxPoint x="506" y="455" as="sourcePoint" />
            <mxPoint x="506" y="435" as="targetPoint" />
          </mxGeometry>
        </mxCell>
        <mxCell id="SCxQsB2F3jwV4tBP3miz-97" value="" style="endArrow=none;html=1;rounded=0;" edge="1" parent="1">
          <mxGeometry width="50" height="50" relative="1" as="geometry">
            <mxPoint x="706" y="455" as="sourcePoint" />
            <mxPoint x="706" y="435" as="targetPoint" />
          </mxGeometry>
        </mxCell>
        <mxCell id="SCxQsB2F3jwV4tBP3miz-98" value="" style="endArrow=none;html=1;rounded=0;" edge="1" parent="1">
          <mxGeometry width="50" height="50" relative="1" as="geometry">
            <mxPoint x="906" y="455" as="sourcePoint" />
            <mxPoint x="906" y="435" as="targetPoint" />
          </mxGeometry>
        </mxCell>
        <mxCell id="SCxQsB2F3jwV4tBP3miz-99" value="" style="endArrow=none;html=1;rounded=0;" edge="1" parent="1">
          <mxGeometry width="50" height="50" relative="1" as="geometry">
            <mxPoint x="346" y="445" as="sourcePoint" />
            <mxPoint x="345.67" y="435" as="targetPoint" />
          </mxGeometry>
        </mxCell>
        <mxCell id="SCxQsB2F3jwV4tBP3miz-100" value="" style="endArrow=none;html=1;rounded=0;" edge="1" parent="1">
          <mxGeometry width="50" height="50" relative="1" as="geometry">
            <mxPoint x="386" y="445" as="sourcePoint" />
            <mxPoint x="386" y="435" as="targetPoint" />
          </mxGeometry>
        </mxCell>
        <mxCell id="SCxQsB2F3jwV4tBP3miz-101" value="" style="endArrow=none;html=1;rounded=0;" edge="1" parent="1">
          <mxGeometry width="50" height="50" relative="1" as="geometry">
            <mxPoint x="426" y="445" as="sourcePoint" />
            <mxPoint x="426" y="435" as="targetPoint" />
          </mxGeometry>
        </mxCell>
        <mxCell id="SCxQsB2F3jwV4tBP3miz-102" value="" style="endArrow=none;html=1;rounded=0;" edge="1" parent="1">
          <mxGeometry width="50" height="50" relative="1" as="geometry">
            <mxPoint x="466" y="445" as="sourcePoint" />
            <mxPoint x="466" y="435" as="targetPoint" />
          </mxGeometry>
        </mxCell>
        <mxCell id="SCxQsB2F3jwV4tBP3miz-103" value="" style="endArrow=none;html=1;rounded=0;" edge="1" parent="1">
          <mxGeometry width="50" height="50" relative="1" as="geometry">
            <mxPoint x="546" y="445" as="sourcePoint" />
            <mxPoint x="546" y="435" as="targetPoint" />
          </mxGeometry>
        </mxCell>
        <mxCell id="SCxQsB2F3jwV4tBP3miz-104" value="" style="endArrow=none;html=1;rounded=0;" edge="1" parent="1">
          <mxGeometry width="50" height="50" relative="1" as="geometry">
            <mxPoint x="586" y="445" as="sourcePoint" />
            <mxPoint x="586" y="435" as="targetPoint" />
          </mxGeometry>
        </mxCell>
        <mxCell id="SCxQsB2F3jwV4tBP3miz-105" value="" style="endArrow=none;html=1;rounded=0;" edge="1" parent="1">
          <mxGeometry width="50" height="50" relative="1" as="geometry">
            <mxPoint x="626" y="445" as="sourcePoint" />
            <mxPoint x="626" y="435" as="targetPoint" />
          </mxGeometry>
        </mxCell>
        <mxCell id="SCxQsB2F3jwV4tBP3miz-106" value="" style="endArrow=none;html=1;rounded=0;" edge="1" parent="1">
          <mxGeometry width="50" height="50" relative="1" as="geometry">
            <mxPoint x="666" y="445" as="sourcePoint" />
            <mxPoint x="666" y="435" as="targetPoint" />
          </mxGeometry>
        </mxCell>
        <mxCell id="SCxQsB2F3jwV4tBP3miz-107" value="" style="endArrow=none;html=1;rounded=0;" edge="1" parent="1">
          <mxGeometry width="50" height="50" relative="1" as="geometry">
            <mxPoint x="746" y="445" as="sourcePoint" />
            <mxPoint x="746" y="435" as="targetPoint" />
          </mxGeometry>
        </mxCell>
        <mxCell id="SCxQsB2F3jwV4tBP3miz-108" value="" style="endArrow=none;html=1;rounded=0;" edge="1" parent="1">
          <mxGeometry width="50" height="50" relative="1" as="geometry">
            <mxPoint x="786" y="445" as="sourcePoint" />
            <mxPoint x="786" y="435" as="targetPoint" />
          </mxGeometry>
        </mxCell>
        <mxCell id="SCxQsB2F3jwV4tBP3miz-109" value="" style="endArrow=none;html=1;rounded=0;" edge="1" parent="1">
          <mxGeometry width="50" height="50" relative="1" as="geometry">
            <mxPoint x="826" y="445" as="sourcePoint" />
            <mxPoint x="826" y="435" as="targetPoint" />
          </mxGeometry>
        </mxCell>
        <mxCell id="SCxQsB2F3jwV4tBP3miz-110" value="" style="endArrow=none;html=1;rounded=0;" edge="1" parent="1">
          <mxGeometry width="50" height="50" relative="1" as="geometry">
            <mxPoint x="866" y="445" as="sourcePoint" />
            <mxPoint x="866" y="435" as="targetPoint" />
          </mxGeometry>
        </mxCell>
        <mxCell id="SCxQsB2F3jwV4tBP3miz-111" value="" style="endArrow=none;html=1;rounded=0;" edge="1" parent="1">
          <mxGeometry width="50" height="50" relative="1" as="geometry">
            <mxPoint x="946" y="445" as="sourcePoint" />
            <mxPoint x="946" y="435" as="targetPoint" />
          </mxGeometry>
        </mxCell>
        <mxCell id="SCxQsB2F3jwV4tBP3miz-112" value="" style="endArrow=none;html=1;rounded=0;" edge="1" parent="1">
          <mxGeometry width="50" height="50" relative="1" as="geometry">
            <mxPoint x="986" y="445" as="sourcePoint" />
            <mxPoint x="986" y="435" as="targetPoint" />
          </mxGeometry>
        </mxCell>
        <mxCell id="SCxQsB2F3jwV4tBP3miz-113" value="&lt;font style=&quot;font-size: 8px;&quot;&gt;t = 0&lt;/font&gt;" style="text;html=1;strokeColor=none;fillColor=none;align=center;verticalAlign=middle;whiteSpace=wrap;rounded=0;" vertex="1" parent="1">
          <mxGeometry x="286" y="455" width="40" height="20" as="geometry" />
        </mxCell>
        <mxCell id="SCxQsB2F3jwV4tBP3miz-114" value="&lt;font style=&quot;font-size: 8px;&quot;&gt;1&lt;/font&gt;" style="text;html=1;strokeColor=none;fillColor=none;align=center;verticalAlign=middle;whiteSpace=wrap;rounded=0;" vertex="1" parent="1">
          <mxGeometry x="336" y="455" width="20" height="20" as="geometry" />
        </mxCell>
        <mxCell id="SCxQsB2F3jwV4tBP3miz-115" value="&lt;font style=&quot;font-size: 8px;&quot;&gt;2&lt;/font&gt;" style="text;html=1;strokeColor=none;fillColor=none;align=center;verticalAlign=middle;whiteSpace=wrap;rounded=0;" vertex="1" parent="1">
          <mxGeometry x="376" y="455" width="20" height="20" as="geometry" />
        </mxCell>
        <mxCell id="SCxQsB2F3jwV4tBP3miz-116" value="&lt;font style=&quot;font-size: 8px;&quot;&gt;3&lt;/font&gt;" style="text;html=1;strokeColor=none;fillColor=none;align=center;verticalAlign=middle;whiteSpace=wrap;rounded=0;" vertex="1" parent="1">
          <mxGeometry x="416" y="455" width="20" height="20" as="geometry" />
        </mxCell>
        <mxCell id="SCxQsB2F3jwV4tBP3miz-117" value="&lt;font style=&quot;font-size: 8px;&quot;&gt;4&lt;/font&gt;" style="text;html=1;strokeColor=none;fillColor=none;align=center;verticalAlign=middle;whiteSpace=wrap;rounded=0;" vertex="1" parent="1">
          <mxGeometry x="456" y="455" width="20" height="20" as="geometry" />
        </mxCell>
        <mxCell id="SCxQsB2F3jwV4tBP3miz-118" value="&lt;font style=&quot;font-size: 8px;&quot;&gt;5&lt;/font&gt;" style="text;html=1;strokeColor=none;fillColor=none;align=center;verticalAlign=middle;whiteSpace=wrap;rounded=0;" vertex="1" parent="1">
          <mxGeometry x="496" y="455" width="20" height="20" as="geometry" />
        </mxCell>
        <mxCell id="SCxQsB2F3jwV4tBP3miz-119" value="&lt;span style=&quot;font-size: 8px;&quot;&gt;6&lt;/span&gt;" style="text;html=1;strokeColor=none;fillColor=none;align=center;verticalAlign=middle;whiteSpace=wrap;rounded=0;" vertex="1" parent="1">
          <mxGeometry x="536" y="455" width="20" height="20" as="geometry" />
        </mxCell>
        <mxCell id="SCxQsB2F3jwV4tBP3miz-120" value="&lt;span style=&quot;font-size: 8px;&quot;&gt;7&lt;/span&gt;" style="text;html=1;strokeColor=none;fillColor=none;align=center;verticalAlign=middle;whiteSpace=wrap;rounded=0;" vertex="1" parent="1">
          <mxGeometry x="576" y="455" width="20" height="20" as="geometry" />
        </mxCell>
        <mxCell id="SCxQsB2F3jwV4tBP3miz-121" value="&lt;font style=&quot;font-size: 8px;&quot;&gt;8&lt;/font&gt;" style="text;html=1;strokeColor=none;fillColor=none;align=center;verticalAlign=middle;whiteSpace=wrap;rounded=0;" vertex="1" parent="1">
          <mxGeometry x="616" y="455" width="20" height="20" as="geometry" />
        </mxCell>
        <mxCell id="SCxQsB2F3jwV4tBP3miz-122" value="&lt;font style=&quot;font-size: 8px;&quot;&gt;9&lt;/font&gt;" style="text;html=1;strokeColor=none;fillColor=none;align=center;verticalAlign=middle;whiteSpace=wrap;rounded=0;" vertex="1" parent="1">
          <mxGeometry x="656" y="455" width="20" height="20" as="geometry" />
        </mxCell>
        <mxCell id="SCxQsB2F3jwV4tBP3miz-123" value="&lt;font style=&quot;font-size: 8px;&quot;&gt;10&lt;/font&gt;" style="text;html=1;strokeColor=none;fillColor=none;align=center;verticalAlign=middle;whiteSpace=wrap;rounded=0;" vertex="1" parent="1">
          <mxGeometry x="696" y="455" width="20" height="20" as="geometry" />
        </mxCell>
        <mxCell id="SCxQsB2F3jwV4tBP3miz-124" value="&lt;font style=&quot;font-size: 8px;&quot;&gt;11&lt;/font&gt;" style="text;html=1;strokeColor=none;fillColor=none;align=center;verticalAlign=middle;whiteSpace=wrap;rounded=0;" vertex="1" parent="1">
          <mxGeometry x="736" y="455" width="20" height="20" as="geometry" />
        </mxCell>
        <mxCell id="SCxQsB2F3jwV4tBP3miz-125" value="&lt;font style=&quot;font-size: 8px;&quot;&gt;12&lt;/font&gt;" style="text;html=1;strokeColor=none;fillColor=none;align=center;verticalAlign=middle;whiteSpace=wrap;rounded=0;" vertex="1" parent="1">
          <mxGeometry x="776" y="455" width="20" height="20" as="geometry" />
        </mxCell>
        <mxCell id="SCxQsB2F3jwV4tBP3miz-126" value="&lt;font style=&quot;font-size: 8px;&quot;&gt;13&lt;/font&gt;" style="text;html=1;strokeColor=none;fillColor=none;align=center;verticalAlign=middle;whiteSpace=wrap;rounded=0;" vertex="1" parent="1">
          <mxGeometry x="816" y="455" width="20" height="20" as="geometry" />
        </mxCell>
        <mxCell id="SCxQsB2F3jwV4tBP3miz-127" value="&lt;font style=&quot;font-size: 8px;&quot;&gt;14&lt;/font&gt;" style="text;html=1;strokeColor=none;fillColor=none;align=center;verticalAlign=middle;whiteSpace=wrap;rounded=0;" vertex="1" parent="1">
          <mxGeometry x="856" y="455" width="20" height="20" as="geometry" />
        </mxCell>
        <mxCell id="SCxQsB2F3jwV4tBP3miz-128" value="&lt;font style=&quot;font-size: 8px;&quot;&gt;15&lt;/font&gt;" style="text;html=1;strokeColor=none;fillColor=none;align=center;verticalAlign=middle;whiteSpace=wrap;rounded=0;" vertex="1" parent="1">
          <mxGeometry x="896" y="455" width="20" height="20" as="geometry" />
        </mxCell>
        <mxCell id="SCxQsB2F3jwV4tBP3miz-129" value="&lt;font style=&quot;font-size: 8px;&quot;&gt;16&lt;/font&gt;" style="text;html=1;strokeColor=none;fillColor=none;align=center;verticalAlign=middle;whiteSpace=wrap;rounded=0;" vertex="1" parent="1">
          <mxGeometry x="936" y="455" width="20" height="20" as="geometry" />
        </mxCell>
        <mxCell id="SCxQsB2F3jwV4tBP3miz-130" value="&lt;font style=&quot;font-size: 8px;&quot;&gt;17&lt;/font&gt;" style="text;html=1;strokeColor=none;fillColor=none;align=center;verticalAlign=middle;whiteSpace=wrap;rounded=0;" vertex="1" parent="1">
          <mxGeometry x="976" y="455" width="20" height="20" as="geometry" />
        </mxCell>
        <mxCell id="SCxQsB2F3jwV4tBP3miz-131" value="" style="rounded=0;whiteSpace=wrap;html=1;fillColor=#e6d0de;gradientColor=#d5739d;strokeColor=#996185;" vertex="1" parent="1">
          <mxGeometry x="387" y="347" width="40" height="40" as="geometry" />
        </mxCell>
        <mxCell id="SCxQsB2F3jwV4tBP3miz-132" value="" style="endArrow=classic;html=1;rounded=0;fillColor=#e51400;strokeColor=#B20000;strokeWidth=1;" edge="1" parent="1">
          <mxGeometry width="50" height="50" relative="1" as="geometry">
            <mxPoint x="385.65999999999997" y="386" as="sourcePoint" />
            <mxPoint x="385.9" y="356" as="targetPoint" />
          </mxGeometry>
        </mxCell>
        <mxCell id="SCxQsB2F3jwV4tBP3miz-133" value="" style="rounded=0;whiteSpace=wrap;html=1;fillColor=#e6d0de;gradientColor=#d5739d;strokeColor=#996185;" vertex="1" parent="1">
          <mxGeometry x="466" y="346" width="40" height="40" as="geometry" />
        </mxCell>
        <mxCell id="SCxQsB2F3jwV4tBP3miz-134" value="" style="rounded=0;whiteSpace=wrap;html=1;fillColor=#e6d0de;gradientColor=#d5739d;strokeColor=#996185;" vertex="1" parent="1">
          <mxGeometry x="746" y="346" width="40" height="40" as="geometry" />
        </mxCell>
        <mxCell id="SCxQsB2F3jwV4tBP3miz-135" value="" style="rounded=0;whiteSpace=wrap;html=1;fillColor=#F8B572;gradientColor=#F70202;strokeColor=#b85450;" vertex="1" parent="1">
          <mxGeometry x="706" y="306" width="40" height="40" as="geometry" />
        </mxCell>
        <mxCell id="SCxQsB2F3jwV4tBP3miz-136" value="" style="endArrow=classic;html=1;rounded=0;fillColor=#e51400;strokeColor=#B20000;strokeWidth=1;" edge="1" parent="1">
          <mxGeometry width="50" height="50" relative="1" as="geometry">
            <mxPoint x="706" y="347" as="sourcePoint" />
            <mxPoint x="706" y="317" as="targetPoint" />
          </mxGeometry>
        </mxCell>
        <mxCell id="SCxQsB2F3jwV4tBP3miz-137" value="" style="endArrow=classic;html=1;rounded=0;fillColor=#e51400;strokeColor=#B20000;strokeWidth=1;" edge="1" parent="1">
          <mxGeometry width="50" height="50" relative="1" as="geometry">
            <mxPoint x="705.31" y="386" as="sourcePoint" />
            <mxPoint x="705.31" y="356" as="targetPoint" />
          </mxGeometry>
        </mxCell>
        <mxCell id="SCxQsB2F3jwV4tBP3miz-138" value="" style="endArrow=classic;html=1;rounded=0;fillColor=#e51400;strokeColor=#B20000;strokeWidth=1;" edge="1" parent="1">
          <mxGeometry width="50" height="50" relative="1" as="geometry">
            <mxPoint x="865.66" y="386" as="sourcePoint" />
            <mxPoint x="865.66" y="356" as="targetPoint" />
          </mxGeometry>
        </mxCell>
        <mxCell id="SCxQsB2F3jwV4tBP3miz-139" value="" style="endArrow=classic;html=1;rounded=0;fillColor=#e51400;strokeColor=#B20000;strokeWidth=1;" edge="1" parent="1">
          <mxGeometry width="50" height="50" relative="1" as="geometry">
            <mxPoint x="466" y="387" as="sourcePoint" />
            <mxPoint x="466" y="357" as="targetPoint" />
          </mxGeometry>
        </mxCell>
        <mxCell id="SCxQsB2F3jwV4tBP3miz-140" value="" style="endArrow=classic;html=1;rounded=0;fillColor=#e51400;strokeColor=#B20000;strokeWidth=1;" edge="1" parent="1">
          <mxGeometry width="50" height="50" relative="1" as="geometry">
            <mxPoint x="545.66" y="386" as="sourcePoint" />
            <mxPoint x="545.66" y="356" as="targetPoint" />
          </mxGeometry>
        </mxCell>
        <mxCell id="SCxQsB2F3jwV4tBP3miz-141" value="" style="endArrow=classic;html=1;rounded=0;fillColor=#e51400;strokeColor=#B20000;strokeWidth=1;" edge="1" parent="1">
          <mxGeometry width="50" height="50" relative="1" as="geometry">
            <mxPoint x="625.66" y="387" as="sourcePoint" />
            <mxPoint x="625.66" y="357" as="targetPoint" />
          </mxGeometry>
        </mxCell>
        <mxCell id="SCxQsB2F3jwV4tBP3miz-142" value="" style="endArrow=classic;html=1;rounded=0;fillColor=#e51400;strokeColor=#B20000;strokeWidth=1;" edge="1" parent="1">
          <mxGeometry width="50" height="50" relative="1" as="geometry">
            <mxPoint x="785.66" y="386" as="sourcePoint" />
            <mxPoint x="785.66" y="356" as="targetPoint" />
          </mxGeometry>
        </mxCell>
        <mxCell id="SCxQsB2F3jwV4tBP3miz-143" value="" style="endArrow=classic;html=1;rounded=0;fillColor=#e51400;strokeColor=#B20000;strokeWidth=1;" edge="1" parent="1">
          <mxGeometry width="50" height="50" relative="1" as="geometry">
            <mxPoint x="945.31" y="387" as="sourcePoint" />
            <mxPoint x="945.31" y="357" as="targetPoint" />
          </mxGeometry>
        </mxCell>
        <mxCell id="SCxQsB2F3jwV4tBP3miz-144" value="Task 4" style="text;html=1;strokeColor=none;fillColor=none;align=center;verticalAlign=middle;whiteSpace=wrap;rounded=0;" vertex="1" parent="1">
          <mxGeometry x="246" y="387" width="60" height="30" as="geometry" />
        </mxCell>
        <mxCell id="SCxQsB2F3jwV4tBP3miz-145" value="" style="endArrow=classic;html=1;rounded=0;fillColor=#e51400;strokeColor=#B20000;strokeWidth=1;" edge="1" parent="1">
          <mxGeometry width="50" height="50" relative="1" as="geometry">
            <mxPoint x="305.7099999999999" y="422" as="sourcePoint" />
            <mxPoint x="305.7099999999999" y="392" as="targetPoint" />
          </mxGeometry>
        </mxCell>
        <mxCell id="SCxQsB2F3jwV4tBP3miz-146" value="" style="endArrow=classic;html=1;rounded=0;fillColor=#e51400;strokeColor=#B20000;strokeWidth=1;" edge="1" parent="1">
          <mxGeometry width="50" height="50" relative="1" as="geometry">
            <mxPoint x="506" y="427" as="sourcePoint" />
            <mxPoint x="506" y="397" as="targetPoint" />
          </mxGeometry>
        </mxCell>
        <mxCell id="SCxQsB2F3jwV4tBP3miz-147" value="" style="endArrow=classic;html=1;rounded=0;fillColor=#e51400;strokeColor=#B20000;strokeWidth=1;" edge="1" parent="1">
          <mxGeometry width="50" height="50" relative="1" as="geometry">
            <mxPoint x="705.43" y="428" as="sourcePoint" />
            <mxPoint x="705.43" y="398" as="targetPoint" />
          </mxGeometry>
        </mxCell>
        <mxCell id="SCxQsB2F3jwV4tBP3miz-148" value="" style="endArrow=classic;html=1;rounded=0;fillColor=#e51400;strokeColor=#B20000;strokeWidth=1;" edge="1" parent="1">
          <mxGeometry width="50" height="50" relative="1" as="geometry">
            <mxPoint x="905.7099999999999" y="427" as="sourcePoint" />
            <mxPoint x="905.7099999999999" y="397" as="targetPoint" />
          </mxGeometry>
        </mxCell>
        <mxCell id="SCxQsB2F3jwV4tBP3miz-149" value="" style="curved=1;endArrow=classic;html=1;rounded=0;strokeWidth=3;entryX=0.75;entryY=0;entryDx=0;entryDy=0;exitX=-0.163;exitY=-0.216;exitDx=0;exitDy=0;exitPerimeter=0;strokeColor=#FF0000;" edge="1" parent="1">
          <mxGeometry width="50" height="50" relative="1" as="geometry">
            <mxPoint x="305" y="275.5" as="sourcePoint" />
            <mxPoint x="873" y="458.5" as="targetPoint" />
            <Array as="points">
              <mxPoint x="308" y="319.5" />
              <mxPoint x="339" y="339.5" />
              <mxPoint x="499" y="339.5" />
              <mxPoint x="649" y="329.5" />
              <mxPoint x="779" y="339.5" />
              <mxPoint x="858" y="409.5" />
            </Array>
          </mxGeometry>
        </mxCell>
        <mxCell id="SCxQsB2F3jwV4tBP3miz-150" value="" style="curved=1;endArrow=classic;html=1;rounded=0;strokeWidth=3;strokeColor=#FF0000;" edge="1" parent="1">
          <mxGeometry width="50" height="50" relative="1" as="geometry">
            <mxPoint x="80" y="55" as="sourcePoint" />
            <mxPoint x="300" y="255" as="targetPoint" />
            <Array as="points">
              <mxPoint x="90" y="95" />
              <mxPoint x="110" y="115" />
              <mxPoint x="220" y="155" />
              <mxPoint x="240" y="205" />
              <mxPoint x="300" y="225" />
            </Array>
          </mxGeometry>
        </mxCell>
        <mxCell id="SCxQsB2F3jwV4tBP3miz-151" value="" style="verticalLabelPosition=bottom;verticalAlign=top;html=1;shape=mxgraph.basic.flash;strokeColor=#000000;fillColor=#FF0000;rotation=30;" vertex="1" parent="1">
          <mxGeometry x="330" y="276" width="13.75" height="30" as="geometry" />
        </mxCell>
        <mxCell id="SCxQsB2F3jwV4tBP3miz-152" value="Task 3 just misses Msg1" style="text;html=1;strokeColor=default;fillColor=none;align=center;verticalAlign=middle;whiteSpace=wrap;rounded=0;" vertex="1" parent="1">
          <mxGeometry x="353" y="285" width="97" height="37" as="geometry" />
        </mxCell>
        <mxCell id="SCxQsB2F3jwV4tBP3miz-153" value="" style="curved=1;endArrow=classic;html=1;rounded=0;strokeColor=#FF0000;strokeWidth=3;" edge="1" parent="1">
          <mxGeometry width="50" height="50" relative="1" as="geometry">
            <mxPoint x="310" y="290" as="sourcePoint" />
            <mxPoint x="470" y="450" as="targetPoint" />
            <Array as="points">
              <mxPoint x="350" y="380" />
              <mxPoint x="410" y="380" />
              <mxPoint x="440" y="400" />
              <mxPoint x="450" y="410" />
            </Array>
          </mxGeometry>
        </mxCell>
        <mxCell id="SCxQsB2F3jwV4tBP3miz-154" value="&lt;i&gt;&lt;font style=&quot;font-size: 18px;&quot;&gt;TP&lt;sup&gt;A&lt;/sup&gt;&lt;/font&gt;&lt;/i&gt;" style="ellipse;whiteSpace=wrap;html=1;aspect=fixed;" vertex="1" parent="1">
          <mxGeometry x="326" y="377" width="50" height="50" as="geometry" />
        </mxCell>
        <mxCell id="SCxQsB2F3jwV4tBP3miz-155" value="&lt;i&gt;&lt;font style=&quot;font-size: 18px;&quot;&gt;TP&lt;/font&gt;&lt;font style=&quot;font-size: 18px;&quot;&gt;&lt;sup style=&quot;&quot;&gt;B&lt;/sup&gt;&lt;/font&gt;&lt;/i&gt;" style="ellipse;whiteSpace=wrap;html=1;aspect=fixed;" vertex="1" parent="1">
          <mxGeometry x="601" y="278.5" width="50" height="50" as="geometry" />
        </mxCell>
        <mxCell id="SCxQsB2F3jwV4tBP3miz-156" value="First output" style="text;html=1;strokeColor=default;fillColor=none;align=center;verticalAlign=middle;whiteSpace=wrap;rounded=0;" vertex="1" parent="1">
          <mxGeometry x="551" y="480" width="79" height="25" as="geometry" />
        </mxCell>
        <mxCell id="SCxQsB2F3jwV4tBP3miz-158" style="rounded=0;orthogonalLoop=1;jettySize=auto;html=1;exitX=0.25;exitY=0;exitDx=0;exitDy=0;entryX=1;entryY=0;entryDx=0;entryDy=0;" edge="1" parent="1" source="SCxQsB2F3jwV4tBP3miz-157" target="SCxQsB2F3jwV4tBP3miz-127">
          <mxGeometry relative="1" as="geometry" />
        </mxCell>
        <mxCell id="SCxQsB2F3jwV4tBP3miz-157" value="Last output" style="text;html=1;strokeColor=default;fillColor=none;align=center;verticalAlign=middle;whiteSpace=wrap;rounded=0;" vertex="1" parent="1">
          <mxGeometry x="876" y="475" width="80" height="30" as="geometry" />
        </mxCell>
        <mxCell id="SCxQsB2F3jwV4tBP3miz-159" style="rounded=0;orthogonalLoop=1;jettySize=auto;html=1;exitX=0.25;exitY=0;exitDx=0;exitDy=0;entryX=0.92;entryY=-0.183;entryDx=0;entryDy=0;entryPerimeter=0;" edge="1" parent="1" source="SCxQsB2F3jwV4tBP3miz-156" target="SCxQsB2F3jwV4tBP3miz-117">
          <mxGeometry relative="1" as="geometry" />
        </mxCell>
      </root>
    </mxGraphModel>
  </diagram>
</mxfile>
